# xmcd
#
# Track frame offsets:
#	150
#	18466
#	33011
#	49722
#	67552
#
# Disc length: 1131 seconds
#
# Revision: 0
# Processed by: cddbd v1.5PL3 Copyright (c) Steve Scherf et al.
# Submitted via: dBpowerAMP V4.0
#
DISCID=2d046905
DTITLE=Martina McBride - On Target
DYEAR=2004
DGENRE=Country
TTITLE0=This One's For The Girls [Remix]
TTITLE1=Wrong Again [Acoustic Mix]
TTITLE2=Being Myself
TTITLE3=Harper Valley PTA [Live]
TTITLE4=Independence Day [Live]
EXTD=
EXTT0=
EXTT1=
EXTT2=
EXTT3=
EXTT4=
PLAYORDER=
